# Tiled2Unity generated file. Do not modify by hand.
# Wavefront file for 'tiledTemplate_isometric_mesh_0006.obj'

# Vertices (Count = 56)
v -3712 -1341 0
v -3968 -1341 0
v -3968 -829 0
v -3712 -829 0
v -3584 -1415 0
v -3840 -1415 0
v -3840 -903 0
v -3584 -903 0
v -3456 -1490 0
v -3712 -1490 0
v -3712 -978 0
v -3456 -978 0
v -3328 -1564 0
v -3584 -1564 0
v -3584 -1052 0
v -3328 -1052 0
v -3200 -1639 0
v -3456 -1639 0
v -3456 -1127 0
v -3200 -1127 0
v -3072 -1713 0
v -3328 -1713 0
v -3328 -1201 0
v -3072 -1201 0
v -2944 -1788 0
v -3200 -1788 0
v -3200 -1276 0
v -2944 -1276 0
v -2816 -1862 0
v -3072 -1862 0
v -3072 -1350 0
v -2816 -1350 0
v -2688 -1937 0
v -2944 -1937 0
v -2944 -1425 0
v -2688 -1425 0
v -2560 -2011 0
v -2816 -2011 0
v -2816 -1499 0
v -2560 -1499 0
v -2432 -2086 0
v -2688 -2086 0
v -2688 -1574 0
v -2432 -1574 0
v -2304 -2160 0
v -2560 -2160 0
v -2560 -1648 0
v -2304 -1648 0
v -2176 -2235 0
v -2432 -2235 0
v -2432 -1723 0
v -2176 -1723 0
v -2048 -2309 0
v -2304 -2309 0
v -2304 -1797 0
v -2048 -1797 0

# Texture cooridinates (Count = 4)
vt 0 0
vt 1 0
vt 1 1
vt 0 1

# Normal
vn 0 0 -1

# Mesh description
g tiledTemplate_isometric_mesh_0006

# Faces
f 1/1/1 2/2/1 3/3/1 4/4/1
f 5/1/1 6/2/1 7/3/1 8/4/1
f 9/1/1 10/2/1 11/3/1 12/4/1
f 13/1/1 14/2/1 15/3/1 16/4/1
f 17/1/1 18/2/1 19/3/1 20/4/1
f 21/1/1 22/2/1 23/3/1 24/4/1
f 25/1/1 26/2/1 27/3/1 28/4/1
f 29/1/1 30/2/1 31/3/1 32/4/1
f 33/1/1 34/2/1 35/3/1 36/4/1
f 37/1/1 38/2/1 39/3/1 40/4/1
f 41/1/1 42/2/1 43/3/1 44/4/1
f 45/1/1 46/2/1 47/3/1 48/4/1
f 49/1/1 50/2/1 51/3/1 52/4/1
f 53/1/1 54/2/1 55/3/1 56/4/1

